<svg xmlns="http://www.w3.org/2000/svg" viewBox="0 0 1920 1080" preserveAspectRatio="xMidYMid slice">
  <defs>
    <linearGradient id="wall" x1="0" y1="0" x2="1" y2="1">
      <stop offset="0" stop-color="#171611"/>
      <stop offset="0.46" stop-color="#0c0d0b"/>
      <stop offset="1" stop-color="#050504"/>
    </linearGradient>
    <radialGradient id="lamp" cx="74%" cy="23%" r="35%">
      <stop offset="0" stop-color="#d6bc7a" stop-opacity="0.38"/>
      <stop offset="0.42" stop-color="#9f8653" stop-opacity="0.12"/>
      <stop offset="1" stop-color="#000000" stop-opacity="0"/>
    </radialGradient>
    <linearGradient id="desk" x1="0" y1="0" x2="1" y2="0">
      <stop offset="0" stop-color="#19150f"/>
      <stop offset="0.52" stop-color="#272016"/>
      <stop offset="1" stop-color="#100e0a"/>
    </linearGradient>
    <filter id="softBlur">
      <feGaussianBlur stdDeviation="10"/>
    </filter>
  </defs>

  <rect width="1920" height="1080" fill="url(#wall)"/>
  <rect width="1920" height="1080" fill="url(#lamp)"/>

  <g opacity="0.18">
    <path d="M0 182 C360 150 520 216 820 176 C1100 138 1340 108 1920 164" fill="none" stroke="#c8b98f" stroke-width="1"/>
    <path d="M0 254 C320 230 610 290 980 236 C1280 192 1520 220 1920 198" fill="none" stroke="#8e907a" stroke-width="1"/>
  </g>

  <rect x="0" y="705" width="1920" height="375" fill="url(#desk)"/>
  <rect x="0" y="704" width="1920" height="2" fill="#d6bc7a" opacity="0.14"/>

  <g opacity="0.34" filter="url(#softBlur)">
    <rect x="244" y="608" width="318" height="54" rx="3" fill="#66553a"/>
    <rect x="274" y="563" width="262" height="44" rx="3" fill="#3d3d32"/>
    <rect x="1260" y="594" width="214" height="78" rx="6" fill="#30271b"/>
    <rect x="1310" y="538" width="104" height="52" rx="24" fill="#b4995f"/>
  </g>

  <g opacity="0.22">
    <rect x="244" y="609" width="318" height="12" fill="#c5ad76"/>
    <rect x="274" y="564" width="262" height="8" fill="#9a9c83"/>
    <rect x="1260" y="595" width="214" height="12" fill="#c0a36a"/>
  </g>

  <g opacity="0.13">
    <rect x="0" y="0" width="1920" height="1080" fill="none" stroke="#f1e3bd" stroke-width="24"/>
    <path d="M1580 0 L1920 0 L1920 1080 L1620 1080 C1708 820 1746 612 1724 432 C1706 286 1648 142 1580 0Z" fill="#d6bc7a"/>
  </g>
</svg>
